<svg height="512" viewBox="0 0 60 60" width="512" xmlns="http://www.w3.org/2000/svg"><g id="Page-1" fill="none" fill-rule="evenodd"><g id="001---CPU-Brain" fill="rgb(0,0,0)"><path id="Shape" d="m3 43c-1.65685425 0-3 1.3431458-3 3s1.34314575 3 3 3h3v1c0 2.209139 1.790861 4 4 4h1v3c0 1.6568542 1.3431458 2.9999999 3 2.9999999s3-1.3431457 3-2.9999999v-3h2v3c0 1.6568542 1.3431458 2.9999999 3 2.9999999s3-1.3431457 3-2.9999999v-3h2v3c0 1.6568542 1.3431458 3 3 3s3-1.3431458 3-3v-3h2v3c0 1.6568542 1.3431458 3 3 3s3-1.3431458 3-3v-3h2v3c0 1.6568542 1.3431458 3 3 3s3-1.3431458 3-3v-3h1c2.209139 0 4-1.790861 4-4v-1h3c1.6568542 0 3-1.3431458 3-3s-1.3431458-3-3-3h-3v-2h3c1.6568542 0 3-1.3431458 3-3s-1.3431458-3-3-3h-3v-2h3c1.6568542 0 3-1.3431458 3-3s-1.3431458-3-3-3h-3v-2h3c1.6568542 0 2.9999999-1.3431458 2.9999999-3s-1.3431457-3-2.9999999-3h-3v-2h3c1.6568542 0 2.9999999-1.3431458 2.9999999-3s-1.3431457-3-2.9999999-3h-3v-1c0-2.209139-1.790861-4-4-4h-1v-3c0-1.65685425-1.3431458-3-3-3s-3 1.34314575-3 3v3h-2v-3c0-1.65685425-1.3431458-3-3-3s-3 1.34314575-3 3v3h-2v-3c0-1.65685425-1.3431458-3-3-3s-3 1.34314575-3 3v3h-2v-3c0-1.65685421-1.3431458-2.99999991-3-2.99999991s-3 1.3431457-3 2.99999991v3h-2v-3c0-1.65685422-1.3431458-2.99999994-3-2.99999994s-3 1.34314572-3 2.99999994v3h-1c-2.209139 0-4 1.790861-4 4v1h-3c-1.65685422 0-2.99999994 1.3431458-2.99999994 3s1.34314572 3 2.99999994 3h3v2h-3c-1.65685421 0-2.99999991 1.3431458-2.99999991 3s1.3431457 3 2.99999991 3h3v2h-3c-1.65685425 0-3 1.3431458-3 3s1.34314575 3 3 3h3v2h-3c-1.65685425 0-3 1.3431458-3 3s1.34314575 3 3 3h3v2zm0 4c-.55228475 0-1-.4477153-1-1s.44771525-1 1-1h3v2zm12 10c0 .5522847-.4477153 1-1 1s-1-.4477153-1-1v-3h2zm8 0c0 .5522847-.4477153 1-1 1s-1-.4477153-1-1v-3h2zm8 0c0 .5522847-.4477153 1-1 1s-1-.4477153-1-1v-3h2zm8 0c0 .5522847-.4477153 1-1 1s-1-.4477153-1-1v-3h2zm8 0c0 .5522847-.4477153 1-1 1s-1-.4477153-1-1v-3h2zm10-12c.5522847 0 1 .4477153 1 1s-.4477153 1-1 1h-3v-2zm0-8c.5522847 0 1 .4477153 1 1s-.4477153 1-1 1h-3v-2zm0-8c.5522847 0 1 .4477153 1 1s-.4477153 1-1 1h-3v-2zm0-8c.5522847 0 1 .4477153 1 1s-.4477153 1-1 1h-3v-2zm0-8c.5522847 0 1 .4477153 1 1s-.4477153 1-1 1h-3v-2zm-12-10c0-.55228475.4477153-1 1-1s1 .44771525 1 1v3h-2zm-8 0c0-.55228475.4477153-1 1-1s1 .44771525 1 1v3h-2zm-8 0c0-.55228475.4477153-1 1-1s1 .44771525 1 1v3h-2zm-8 0c0-.55228475.4477153-1 1-1s1 .44771525 1 1v3h-2zm-8 0c0-.55228475.4477153-1 1-1s1 .44771525 1 1v3h-2zm-5 7c0-1.1045695.8954305-2 2-2h40c1.1045695 0 2 .8954305 2 2v40c0 1.1045695-.8954305 2-2 2h-40c-1.1045695 0-2-.8954305-2-2zm-5 5c-.55228475 0-1-.4477153-1-1s.44771525-1 1-1h3v2zm0 8c-.55228475 0-1-.4477153-1-1s.44771525-1 1-1h3v2zm0 8c-.55228475 0-1-.4477153-1-1s.44771525-1 1-1h3v2zm0 8c-.55228475 0-1-.4477153-1-1s.44771525-1 1-1h3v2z" fill-rule="nonzero"/><path id="Shape" d="m17.763 18.877c-2.6798549.7854638-4.3457132 3.4545352-3.874 6.207-1.9206257 2.0525129-2.1337161 5.1724067-.51 7.467-.7057781.8548428-1.0906294 1.929455-1.088 3.038.0070542 2.0208829 1.275035 3.8224141 3.175 4.511-.3355593 1.4291574-.0488333 2.9335798.7888709 4.1391263.8377042 1.2055466 2.1476745 1.998942 3.6041291 2.1828737.9985121 1.8192616 2.8748836 2.9847056 4.9482542 3.0734387 2.0733706.0887332 4.042453-.9121385 5.1927458-2.6394387 1.1501266 1.7273932 3.1190984 2.728444 5.1924631 2.6399155 2.0733647-.0885284 3.9498402-1.253772 4.9485369-3.0729155 1.4566749-.1838938 2.7668394-.9774334 3.6045763-2.1832177.8377368-1.2057843 1.1243072-2.7104814.7884237-4.1397823 1.9003081-.6887119 3.1683647-2.4907502 3.175-4.512.0024611-1.108516-.3823703-2.1830728-1.088-3.038 1.6237161-2.2945933 1.4106257-5.4144871-.51-7.467.4717132-2.7524648-1.1941451-5.4215362-3.874-6.207.5908205-2.1511927-.5339298-4.4019867-2.609-5.221-3.911-2.846-6.756-3.758-8.69-2.781-.3556894.1806233-.6739619.4269621-.938.726-.2638576-.2997562-.5821419-.5467828-.938-.728-1.935-.98-4.783-.066-8.7 2.787-2.0696437.8210579-3.1898846 3.0680028-2.6 5.215zm14.088-6.221c.428-.213 1.61-.426 4.257 1.083-.9512009.4419157-1.7140579 1.2079631-2.152 2.161-.1540005.3258055-.1207911.709271.0869282 1.0037503.2077194.2944793.5578164.4544192.9164057.4186548.3585893-.0357643.6702005-.2617005.8156661-.5914051.5461788-1.1427127 1.8725195-1.6817418 3.061-1.244.6182809.2212351 1.1156004.6913749 1.3711989 1.2962597.2555985.6048847.2460964 1.2891857-.0261989 1.8867403-2.0676682.1616597-3.8717883 1.4648712-4.675 3.377-.2140103.5092065.0252935 1.0954896.5345 1.3095.5092065.2140103 1.0954896-.0252935 1.3095-.5345.653146-1.5663474 2.3218538-2.4531305 3.9854977-2.1179695 1.6636438.335161 2.8588095 1.7989058 2.8545023 3.4959695-.0006308.3237546-.0446904.6459614-.131.958-.0735855.3687987.041124.7500392.306 1.017 1.2379783 1.0787006 1.6757699 2.8128468 1.098149 4.3499021-.577621 1.5370554-2.0491465 2.5536858-3.691149 2.5500979-.5522847 0-1 .4477153-1 1s.4477153 1 1 1c1.2238613.0018139 2.4179976-.3770107 3.417-1.084.3352593.4664037.5170018 1.0256114.52 1.6-.0033884 1.4593486-1.127077 2.6713829-2.582 2.785-.337032.0249448-.6386629.2184313-.8018621.5143685s-.1658842.654282-.0071379.9526315c.2337986.445293.3549949.941065.353 1.444-.0016529 1.7540855-1.4229151 3.1757951-3.177 3.178-.4035796-.0000337-.7676219.2425297-.923.615-.7220532 1.7324327-2.5666425 2.7142776-4.406992 2.3457702-1.8403494-.3685075-3.1646757-1.9848889-3.164008-3.8617702v-17.849c.0011025-.7057531.5732463-1.2774495 1.279-1.278.5522847 0 1-.4477153 1-1s-.4477153-1-1-1c-.4397525.0000707-.8748995.0895497-1.279.263v-8.371c0-.013.027-1.264.851-1.673zm-9.826 2.666c.9455763.0006719 1.8044496.5511316 2.2 1.41.1454656.3297046.4570768.5556408.8156661.5914051.3585893.0357644.7086863-.1241755.9164057-.4186548.2077193-.2944793.2409287-.6779448.0869282-1.0037503-.4378507-.9536836-1.2011512-1.7201748-2.153-2.162 2.648-1.51 3.83-1.3 4.258-1.083.824.409.851 1.66.851 1.666v4.578c-.4044649-.1719428-.8395048-.2603793-1.279-.26-.5522847 0-1 .4477153-1 1s.4477153 1 1 1c.7053642.0005491 1.277347.5716375 1.279 1.277v21.647c-.0002859 1.8765052-1.3249146 3.4919997-3.1649888 3.8599659-1.8400741.3679662-3.6841025-.6138805-4.4060112-2.3459659-.1553781-.3724703-.5194204-.6150337-.923-.615-1.7540849-.0022049-3.1753471-1.4239145-3.177-3.178-.0019949-.502935.1192014-.998707.353-1.444.1587463-.2983495.1560613-.6566943-.0071379-.9526315s-.4648301-.4894237-.8018621-.5143685c-1.454923-.1136171-2.5786116-1.3256514-2.582-2.785.0025998-.5744527.1843807-1.1337787.52-1.6.999121.7066342 2.1932475 1.0851062 3.417 1.083.5522847 0 1-.4477153 1-1s-.4477153-1-1-1c-1.6403258.000245-3.1089196-1.0165697-3.6859493-2.5520519-.5770298-1.5354821-.1415656-3.2678363 1.0929493-4.3479481.2734987-.2617527.3896504-.6477865.306-1.017-.0863096-.3120386-.1303692-.6342454-.131-.958-.0002882-1.6949922 1.1954755-3.1547212 2.8573556-3.4881178s3.3281431.5521693 3.9816444 2.1161178c.2140103.5092065.8002935.7485103 1.3095.5345s.7485103-.8002935.5345-1.3095c-.8032117-1.9121288-2.6073318-3.2153403-4.675-3.377-.3358086-.7415936-.2678536-1.603587.1800112-2.2833999s1.2130619-1.0824591 2.0269888-1.0666001z" fill-rule="nonzero"/><path id="Path" d="m19.869 26.462c-.2389873-.2693948-.6043664-.3894824-.9565738-.3143931s-.6368375.3337565-.7451702.6771986-.0236339.7186075.221744.9821945c.7325287.8052292 1.6725065 1.3933639 2.717 1.7-.2525865.4863306-.6635655.87191-1.165 1.093-.3285057.140584-.5570568.4457447-.5995604.800531-.0425035.3547863.1074979.7052977.3935.9195.2860022.2142023.6645547.259553.9930604.118969 1.1699271-.5037273 2.0655153-1.4878901 2.457-2.7 1.4340225-.0899805 2.7856059-.7013942 3.8-1.719.2536586-.2531227.3530094-.6223429.260628-.968579-.0923813-.3462361-.36246-.6168866-.7085-.71-.3460399-.0931134-.7154694.0054563-.969128.258579-.7617395.7619594-1.8024678 1.1784462-2.87957 1.152369s-2.0964562-.4924397-2.82043-1.290369z"/><path id="Path" d="m26.419 33.178c-.2278303.0001702-.4554885.0125212-.682.037-1.8468607.1466653-3.4378798 1.358498-4.07 3.1-.6319446 1.8104675-.1648195 3.8229981 1.2 5.17.596136.5926551.9346039 1.3964266.942 2.237 0 .5522847.4477153 1 1 1s1-.4477153 1-1c-.0058026-1.3622937-.5479266-2.6674868-1.509-3.633-.8261496-.8006039-1.1176765-2.0052443-.749-3.095.3735025-1.0205176 1.3153848-1.7233972 2.4-1.791.1557959-.0164374.3123396-.024782.469-.025.5522847 0 1-.4477153 1-1s-.4477153-1-1-1z"/><path id="Path" d="m33.811 33.215c-.226507-.0245342-.4541682-.0368853-.682-.037-.5522847 0-1 .4477153-1 1s.4477153 1 1 1c.15633.0001365.3125451.0084814.468.025 1.0856381.0667024 2.0288463.7696928 2.403 1.791.3676632 1.0898005.0762689 2.2938929-.749 3.095-.9644879.9657678-1.508917 2.2731163-1.515 3.638 0 .5522847.4477153 1 1 1s1-.4477153 1-1c.0073961-.8405734.345864-1.6443449.942-2.237 1.3652635-1.3467535 1.8324527-3.35956 1.2-5.17-.6298884-1.7426853-2.2199229-2.9566163-4.067-3.105z"/><path id="Path" d="m33.018 28.014c1.0143941 1.0176058 2.3659775 1.6290195 3.8 1.719.3914847 1.2121099 1.2870729 2.1962727 2.457 2.7.3285057.140584.7070582.0952333.9930604-.118969s.4360035-.5647137.3935-.9195c-.0425036-.3547863-.2710547-.659947-.5995604-.800531-.5027133-.220778-.9148373-.6067914-1.168-1.094 1.0444935-.3066361 1.9844713-.8947708 2.717-1.7.2453779-.263587.3300767-.6387524.221744-.9821945s-.3929628-.6021093-.7451702-.6771986-.7175865.0449983-.9565738.3143931c-.7239738.7979293-1.7433278 1.2642918-2.82043 1.290369s-2.1178305-.3904096-2.87957-1.152369c-.3923789-.3789722-1.0160848-.3735524-1.4018186.0121814s-.3911536 1.0094397-.0121814 1.4018186z"/><path id="Shape" d="m11.177 17.853c.2331384.0961198.4828245.1457173.735.146.5077963.0000724.9946964-.2021728 1.353-.562l4.172-4.172c.547682-.5454775.7128173-1.3671742.4183944-2.0818884-.2944228-.7147142-.9904137-1.1816743-1.7633944-1.1831116h-4.181c-1.0549592.0011024-1.9098976.8560408-1.911 1.911v4.181c-.00159793.7715257.4635139 1.4674152 1.177 1.761zm.823-5.853h3.876l-3.876 3.946z" fill-rule="nonzero"/></g></g></svg>